<svg xmlns="http://www.w3.org/2000/svg" viewBox="0 0 1500 950" role="img">
  <defs>
    <linearGradient id="bg" x1="0" y1="0" x2="1" y2="1"><stop stop-color="#edf4f7"/><stop offset="1" stop-color="#f8f1df"/></linearGradient>
    <filter id="grain"><feTurbulence baseFrequency="0.65" numOctaves="3" stitchTiles="stitch"/><feColorMatrix type="saturate" values="0"/><feComponentTransfer><feFuncA type="table" tableValues="0 .075"/></feComponentTransfer></filter>
    <filter id="blur"><feGaussianBlur stdDeviation="18"/></filter>
  </defs>
  <rect width="1500" height="950" fill="url(#bg)"/>
  <rect width="1500" height="950" filter="url(#grain)" opacity=".45"/>
  <circle cx="270" cy="230" r="190" fill="#d9b85f" opacity=".22" filter="url(#blur)"/>
  <circle cx="1210" cy="760" r="240" fill="#0b2f66" opacity=".15" filter="url(#blur)"/>
  <rect x="220" y="240" width="1080" height="500" rx="52" fill="#fff" opacity=".24"/>
  <ellipse cx="760" cy="765" rx="540" ry="90" fill="#000" opacity=".08"/>
  
      <g transform="translate(500,570)">
        <circle cx="0" cy="-130" r="54" fill="#c79363" opacity=".96"/>
        <path d="M-70,-55 C-55,-120 55,-120 70,-55 L100,170 L-100,170 Z" fill="#0b2f66"/>
        <path d="M-38,-160 C-18,-198 30,-198 50,-160 C22,-172 -10,-172 -38,-160Z" fill="#3a2d28" opacity=".78"/>
      </g>

      <g transform="translate(760,550)">
        <circle cx="0" cy="-130" r="54" fill="#c79363" opacity=".96"/>
        <path d="M-70,-55 C-55,-120 55,-120 70,-55 L100,170 L-100,170 Z" fill="#c49145"/>
        <path d="M-38,-160 C-18,-198 30,-198 50,-160 C22,-172 -10,-172 -38,-160Z" fill="#3a2d28" opacity=".78"/>
      </g>

      <g transform="translate(1000,575)">
        <circle cx="0" cy="-130" r="54" fill="#c79363" opacity=".96"/>
        <path d="M-70,-55 C-55,-120 55,-120 70,-55 L100,170 L-100,170 Z" fill="#244c78"/>
        <path d="M-38,-160 C-18,-198 30,-198 50,-160 C22,-172 -10,-172 -38,-160Z" fill="#3a2d28" opacity=".78"/>
      </g>
  <rect x="120" y="100" width="1260" height="740" rx="68" fill="none" stroke="#fff" stroke-width="18" opacity=".28"/>
</svg>