<svg xmlns="http://www.w3.org/2000/svg" viewBox="0 0 1500 950" role="img">
  <defs>
    <linearGradient id="bg" x1="0" y1="0" x2="1" y2="1"><stop stop-color="#eaf3ec"/><stop offset="1" stop-color="#f7efd9"/></linearGradient>
    <filter id="grain"><feTurbulence baseFrequency="0.65" numOctaves="3" stitchTiles="stitch"/><feColorMatrix type="saturate" values="0"/><feComponentTransfer><feFuncA type="table" tableValues="0 .075"/></feComponentTransfer></filter>
    <filter id="blur"><feGaussianBlur stdDeviation="18"/></filter>
  </defs>
  <rect width="1500" height="950" fill="url(#bg)"/>
  <rect width="1500" height="950" filter="url(#grain)" opacity=".45"/>
  <circle cx="270" cy="230" r="190" fill="#d9b85f" opacity=".22" filter="url(#blur)"/>
  <circle cx="1210" cy="760" r="240" fill="#0d554a" opacity=".15" filter="url(#blur)"/>
  <path d="M170 760 C400 590 740 650 970 510 C1150 400 1340 410 1500 350 L1500 900 L100 900Z" fill="#0d554a" opacity=".12"/><path d="M180 780 C520 710 660 760 820 710 C1050 640 1150 710 1420 620" stroke="#0d554a" stroke-width="24" opacity=".25" fill="none"/>
  <ellipse cx="760" cy="765" rx="540" ry="90" fill="#000" opacity=".08"/>
  
      <g transform="translate(470,585)">
        <circle cx="0" cy="-130" r="54" fill="#c79363" opacity=".96"/>
        <path d="M-70,-55 C-55,-120 55,-120 70,-55 L100,170 L-100,170 Z" fill="#0d554a"/>
        <path d="M-38,-160 C-18,-198 30,-198 50,-160 C22,-172 -10,-172 -38,-160Z" fill="#3a2d28" opacity=".78"/>
      </g>

      <g transform="translate(690,550)">
        <circle cx="0" cy="-130" r="54" fill="#c79363" opacity=".96"/>
        <path d="M-70,-55 C-55,-120 55,-120 70,-55 L100,170 L-100,170 Z" fill="#b5823b"/>
        <path d="M-38,-160 C-18,-198 30,-198 50,-160 C22,-172 -10,-172 -38,-160Z" fill="#3a2d28" opacity=".78"/>
      </g>

      <g transform="translate(915,575)">
        <circle cx="0" cy="-130" r="54" fill="#c79363" opacity=".96"/>
        <path d="M-70,-55 C-55,-120 55,-120 70,-55 L100,170 L-100,170 Z" fill="#1f456f"/>
        <path d="M-38,-160 C-18,-198 30,-198 50,-160 C22,-172 -10,-172 -38,-160Z" fill="#3a2d28" opacity=".78"/>
      </g>
  <rect x="120" y="100" width="1260" height="740" rx="68" fill="none" stroke="#fff" stroke-width="18" opacity=".28"/>
</svg>